<?xml version="1.0" standalone="no"?>
<!DOCTYPE svg PUBLIC "-//W3C//DTD SVG 20010904//EN"
 "http://www.w3.org/TR/2001/REC-SVG-20010904/DTD/svg10.dtd">
<svg version="1.0" xmlns="http://www.w3.org/2000/svg"
width="24px" height="24px" viewBox="0 0 250.000000 290.000000"
 preserveAspectRatio="xMidYMid meet">
<metadata>
Created by potrace 1.10, written by Peter Selinger 2001-2011
</metadata>
<g transform="translate(0.000000,300.000000) scale(0.100000,-0.100000)"
fill="#ff0000" stroke="#ff0000">
<path d="M1255 2299 c-22 -5 -51 -11 -65 -13 -14 -2 -32 -6 -40 -9 -57 -22
-137 -49 -147 -50 -7 0 -13 -4 -13 -9 0 -4 -5 -8 -10 -8 -6 0 -30 -9 -53 -21
-23 -11 -49 -22 -59 -24 -9 -2 -39 -20 -67 -39 -28 -20 -53 -36 -56 -36 -3 0
-38 -24 -78 -54 -108 -81 -247 -233 -247 -270 0 -9 -4 -16 -8 -16 -11 0 -32
-82 -32 -124 0 -34 25 -116 38 -126 4 -3 20 -22 35 -43 38 -50 62 -74 133
-127 32 -25 61 -47 64 -50 3 -3 35 -25 73 -49 37 -24 67 -47 67 -52 0 -5 7 -9
15 -9 27 0 16 -20 -21 -35 -109 -46 -304 -201 -304 -244 0 -6 -5 -11 -12 -11
-6 0 -9 -3 -6 -6 3 -3 2 -21 -4 -41 -15 -55 -1 -130 32 -163 71 -73 254 -40
365 66 70 68 108 156 110 258 1 45 0 86 -4 91 -22 38 -17 69 14 85 17 9 43 24
58 34 34 23 41 18 26 -20 -41 -106 -17 -271 50 -335 22 -21 72 -18 94 6 40 43
106 180 93 193 -5 4 -49 -64 -52 -78 -8 -44 -60 -100 -94 -100 -22 0 -32 9
-54 49 -30 56 -36 114 -23 229 8 70 7 73 -15 81 -13 6 -17 10 -9 10 8 1 11 4
8 8 -4 3 19 23 50 43 32 21 74 54 92 74 19 20 41 36 48 36 7 0 13 4 13 9 0 5
14 12 31 16 24 6 36 2 52 -14 l21 -21 -39 0 c-70 -1 -104 -32 -157 -146 -57
-123 -52 -283 9 -292 27 -4 83 52 83 83 0 9 8 35 19 58 10 23 31 82 47 130
l28 88 31 -7 c16 -3 34 -10 39 -14 7 -8 -6 -90 -21 -130 -14 -37 -25 -128 -18
-150 4 -13 15 -20 31 -20 13 0 24 -6 24 -13 0 -18 -56 -77 -73 -77 -18 0 -47
68 -48 113 l-1 32 -8 -29 c-14 -47 -1 -114 27 -136 22 -17 28 -18 52 -6 14 8
34 24 44 36 22 26 147 271 147 288 0 7 5 12 12 12 6 0 9 3 6 6 -4 3 5 29 18
57 13 29 24 61 24 71 0 20 0 20 -15 0 -20 -27 -19 -9 6 67 26 79 58 116 86
101 17 -10 19 -19 15 -100 -4 -80 -2 -92 19 -125 16 -24 32 -37 47 -37 26 0
25 2 11 -39 -9 -25 -9 -42 1 -71 19 -57 6 -105 -41 -151 -22 -21 -44 -39 -49
-39 -17 0 -11 28 8 42 42 29 58 106 24 114 -13 4 -17 16 -18 52 0 42 -42 161
-64 186 -18 19 1 -71 24 -116 14 -28 26 -58 26 -67 0 -10 -17 -36 -38 -59 -22
-23 -37 -42 -35 -42 3 0 -16 -23 -41 -51 -49 -54 -57 -84 -28 -105 20 -16 58
-18 67 -5 3 6 13 9 23 9 48 -3 162 77 162 113 0 10 3 19 8 19 6 0 8 61 2 85
-2 6 -4 15 -5 20 0 6 -4 20 -8 31 -6 16 2 36 27 75 19 30 39 59 43 64 5 6 19
31 32 58 23 48 47 55 38 11 -2 -13 0 -24 5 -24 5 0 7 -4 4 -9 -3 -4 6 -31 21
-59 l26 -50 -46 -45 c-46 -45 -87 -125 -87 -171 0 -29 29 -56 62 -56 34 0 147
76 174 117 22 33 25 77 10 134 -7 23 -4 26 31 36 96 28 205 23 275 -12 17 -8
35 -15 39 -15 32 0 99 -99 99 -146 0 -32 -29 -82 -51 -89 -19 -6 -33 -34 -23
-44 4 -3 9 0 11 7 3 6 8 10 13 7 10 -6 58 42 77 79 13 26 14 62 1 130 -9 52
-177 180 -209 160 -5 -3 -15 -1 -22 4 -14 11 -118 9 -136 -2 -7 -5 -15 -6 -18
-3 -3 3 -30 -3 -60 -15 -40 -15 -58 -17 -66 -9 -6 6 -7 11 -3 11 5 0 1 11 -8
25 -31 47 -39 118 -22 185 9 34 16 66 16 70 0 5 -27 8 -61 6 -66 -3 -75 -10
-85 -66 -6 -33 -69 -169 -83 -180 -4 -3 -18 -26 -31 -52 -14 -27 -28 -48 -31
-48 -10 0 -39 100 -39 135 0 18 7 51 15 74 16 46 16 52 1 66 -14 13 -86 15
-86 2 0 -5 -6 -7 -14 -4 -10 4 -20 -12 -35 -52 -12 -32 -21 -63 -21 -69 0 -6
-5 -12 -10 -14 -6 -2 -12 -12 -14 -24 -2 -11 -18 -52 -36 -90 -17 -38 -42 -91
-54 -119 -60 -132 -77 -165 -86 -165 -5 0 -10 18 -10 40 0 22 5 40 11 40 5 0
7 4 4 10 -3 5 4 42 16 82 12 40 22 81 21 91 0 9 3 17 9 17 19 0 8 27 -16 40
-20 11 -27 11 -40 0 -17 -14 -17 -13 -15 51 1 40 -3 50 -26 68 -52 41 -102 22
-212 -79 -33 -31 -85 -69 -117 -85 -31 -17 -75 -40 -98 -52 l-42 -22 -40 38
c-22 21 -62 55 -90 75 -163 122 -226 206 -224 296 2 50 35 150 50 150 5 0 9 6
9 13 0 13 57 76 105 117 53 45 105 80 105 73 0 -5 4 -3 8 2 18 25 232 144 232
129 0 -3 10 0 23 8 39 26 149 58 237 69 94 12 240 5 251 -12 3 -6 10 -11 15
-10 17 0 72 -37 82 -56 11 -20 13 -122 4 -138 -4 -5 -7 -15 -8 -22 -7 -41
-168 -213 -201 -213 -7 0 -13 -4 -13 -8 0 -9 -83 -51 -110 -56 -8 -1 -40 -10
-70 -19 -98 -31 -181 -33 -252 -7 -35 12 -73 33 -86 46 -29 30 -30 30 -24 -3
8 -41 59 -87 123 -111 73 -27 232 -24 328 7 35 11 68 18 73 15 4 -3 8 -1 8 4
0 6 12 13 28 16 15 4 50 22 78 41 57 37 174 148 174 164 0 6 3 11 8 11 9 0 52
93 52 113 0 9 4 18 9 21 4 3 6 17 3 31 -2 14 0 25 4 25 5 0 9 11 9 25 0 14 -4
25 -8 25 -5 0 -7 10 -6 23 8 68 -80 160 -188 197 -76 26 -266 37 -338 19z
m257 -20 c107 -23 197 -80 232 -146 34 -67 29 -144 -16 -241 -28 -59 -29 -60
-108 -142 -111 -114 -276 -180 -447 -178 -52 0 -75 13 -30 15 12 1 42 6 67 12
25 6 54 12 65 15 216 49 419 246 419 406 0 81 -21 112 -98 149 -66 31 -155 42
-261 32 -97 -10 -303 -78 -405 -134 -225 -124 -319 -207 -381 -332 -32 -67
-34 -180 -2 -240 23 -45 115 -137 183 -186 25 -18 52 -40 60 -49 36 -39 89
-70 118 -70 34 0 40 -8 20 -28 -9 -9 -8 -24 2 -66 37 -156 -30 -321 -162 -394
-86 -48 -187 -61 -236 -31 -32 20 -61 84 -56 123 9 75 61 149 149 212 22 16
42 31 45 34 3 3 18 11 34 18 22 10 13 -2 -36 -51 -88 -85 -123 -166 -98 -226
41 -100 220 -39 298 101 24 43 34 80 38 149 3 48 0 59 -19 77 -22 21 -41 23
-64 9 -8 -5 -13 -4 -13 2 0 6 5 11 10 11 6 0 10 11 10 23 0 26 -41 68 -111
113 -56 36 -219 165 -219 173 0 3 -14 22 -31 41 -29 34 -60 84 -58 95 0 3 -2
18 -6 33 -8 40 27 144 67 198 61 84 164 181 252 238 83 54 159 100 186 113 68
31 198 82 225 88 17 4 42 11 56 16 72 28 234 36 321 18z m533 -727 c-38 -96
12 -272 77 -272 17 0 18 -2 5 -21 -11 -14 -14 -37 -10 -77 4 -52 2 -60 -25
-92 -26 -30 -39 -26 -20 5 10 18 2 106 -11 115 -13 7 -34 60 -67 163 -16 50
-37 68 -57 48 -23 -23 -25 -10 -7 37 10 26 21 58 24 72 7 33 54 62 79 48 12
-6 16 -15 12 -26z m-709 -217 c-4 -20 -16 -56 -26 -81 -11 -25 -22 -55 -24
-67 -6 -32 -48 -140 -60 -156 -5 -7 -11 -20 -12 -28 -2 -9 -10 -23 -19 -32
-15 -15 -17 -14 -31 4 -12 15 -14 40 -11 106 3 76 8 97 41 163 41 82 83 126
123 126 23 0 25 -2 19 -35z m1048 -28 c3 3 6 1 6 -5 0 -11 -57 -14 -74 -4 -16
9 28 20 45 11 9 -5 19 -5 23 -2z m-324 -129 c0 -47 -21 -98 -49 -118 -27 -19
-61 -27 -61 -15 0 13 53 108 72 130 27 31 38 32 38 3z m-1178 -143 c1 -55 -35
-165 -53 -165 -5 0 -9 -5 -9 -10 0 -22 -77 -81 -124 -95 -64 -19 -73 -19 -92
4 -18 20 -27 81 -13 81 5 0 6 7 3 15 -4 8 -1 15 6 15 6 0 9 4 5 9 -8 14 132
151 155 151 5 0 10 5 10 10 0 6 20 20 45 32 25 12 45 27 45 32 0 6 5 3 11 -7
6 -10 11 -42 11 -72z m874 49 c-3 -9 -6 -20 -6 -25 0 -14 -72 -90 -95 -99 -17
-8 -18 -9 -2 -9 30 -1 8 -21 -24 -21 -18 0 -29 5 -29 14 0 15 30 44 38 36 3
-3 28 23 56 57 50 60 74 79 62 47z m204 -66 c0 -12 -28 -9 -35 2 -4 6 -4 18
-1 27 6 14 8 14 21 -3 8 -10 15 -22 15 -26z"/>
</g>
</svg>
